<svg id="Ebene_1" data-name="Ebene 1" xmlns="http://www.w3.org/2000/svg" viewBox="0 0 182.71 182.8"><defs><style>.cls-1{fill:#1d1d1b;}</style></defs><title>161206_Felfel_logo_final</title><path class="cls-1" d="M102.59,170.29a5.29,5.29,0,0,1,3.35,1.29.24.24,0,0,1,0,.37l-1.08,1.15a.29.29,0,0,1-.37,0,2.53,2.53,0,0,0-1.8-.66,2.75,2.75,0,0,0,0,5.5,3.22,3.22,0,0,0,1.22-.22v-.8h-.86a.25.25,0,0,1-.26-.25v-1.36a.25.25,0,0,1,.26-.26h2.76a.26.26,0,0,1,.25.26V179a.35.35,0,0,1-.11.22,6.94,6.94,0,0,1-3.4.89,4.92,4.92,0,1,1,0-9.84Z" transform="translate(-50.76 -55.32)"/><path class="cls-1" d="M112.88,170.28a4.94,4.94,0,1,1-4.92,5A4.93,4.93,0,0,1,112.88,170.28Zm0,7.68a2.74,2.74,0,1,0-2.73-2.73A2.75,2.75,0,0,0,112.88,178Z" transform="translate(-50.76 -55.32)"/><path class="cls-1" d="M124.38,170.28a4.94,4.94,0,1,1-4.92,5A4.93,4.93,0,0,1,124.38,170.28Zm0,7.68a2.74,2.74,0,1,0-2.73-2.73A2.75,2.75,0,0,0,124.38,178Z" transform="translate(-50.76 -55.32)"/><path class="cls-1" d="M131.65,170.68a.26.26,0,0,1,.25-.26h3.35a4.8,4.8,0,1,1,0,9.6H131.9a.26.26,0,0,1-.25-.26Zm3.46,7.31a2.78,2.78,0,0,0,0-5.56h-1.32V178Z" transform="translate(-50.76 -55.32)"/><path class="cls-1" d="M146.13,170.68a.26.26,0,0,1,.26-.26h5.68a.26.26,0,0,1,.26.26v1.49a.26.26,0,0,1-.26.26h-3.8v2h3.13a.27.27,0,0,1,.26.26v1.49a.27.27,0,0,1-.26.26h-3.13v3.33a.27.27,0,0,1-.26.26h-1.62a.26.26,0,0,1-.26-.26Z" transform="translate(-50.76 -55.32)"/><path class="cls-1" d="M158.75,170.28a4.94,4.94,0,1,1-4.92,5A4.93,4.93,0,0,1,158.75,170.28Zm0,7.68a2.74,2.74,0,1,0-2.73-2.73A2.75,2.75,0,0,0,158.75,178Z" transform="translate(-50.76 -55.32)"/><path class="cls-1" d="M170.25,170.28a4.94,4.94,0,1,1-4.92,5A4.93,4.93,0,0,1,170.25,170.28Zm0,7.68a2.74,2.74,0,1,0-2.73-2.73A2.75,2.75,0,0,0,170.25,178Z" transform="translate(-50.76 -55.32)"/><path class="cls-1" d="M177.53,170.68a.26.26,0,0,1,.25-.26h3.35a4.8,4.8,0,1,1,0,9.6h-3.35a.26.26,0,0,1-.25-.26ZM181,178a2.78,2.78,0,0,0,0-5.56h-1.32V178Z" transform="translate(-50.76 -55.32)"/><path class="cls-1" d="M109.43,194.69l4.29-9.23a.28.28,0,0,1,.23-.15h.14a.28.28,0,0,1,.23.15l4.29,9.23a.24.24,0,0,1-.23.36h-1.52c-.25,0-.36-.08-.48-.34l-.49-1.08h-3.73l-.49,1.1a.51.51,0,0,1-.49.33h-1.51A.24.24,0,0,1,109.43,194.69Zm5.64-2.93-1-2.26h0l-1,2.26Z" transform="translate(-50.76 -55.32)"/><path class="cls-1" d="M121.65,187.47h-2a.26.26,0,0,1-.26-.26v-1.49a.26.26,0,0,1,.26-.26h6.09a.26.26,0,0,1,.26.26v1.49a.26.26,0,0,1-.26.26h-2v7.32a.27.27,0,0,1-.26.26h-1.65a.27.27,0,0,1-.26-.26Z" transform="translate(-50.76 -55.32)"/><path class="cls-1" d="M131,185.78a.24.24,0,0,1,.25-.33h1.6a.28.28,0,0,1,.25.19l1.18,4.65h.06l2.13-4.83a.26.26,0,0,1,.23-.15h.25a.23.23,0,0,1,.23.15l2.13,4.83h.06l1.18-4.65a.28.28,0,0,1,.25-.19h1.6a.24.24,0,0,1,.25.33L140,195a.26.26,0,0,1-.25.19h-.22a.28.28,0,0,1-.23-.15l-2.51-5.61h0l-2.5,5.61a.28.28,0,0,1-.23.15h-.22a.26.26,0,0,1-.25-.19Z" transform="translate(-50.76 -55.32)"/><path class="cls-1" d="M149,185.31a4.94,4.94,0,1,1-4.92,5A4.93,4.93,0,0,1,149,185.31Zm0,7.68a2.74,2.74,0,1,0-2.73-2.73A2.75,2.75,0,0,0,149,193Z" transform="translate(-50.76 -55.32)"/><path class="cls-1" d="M156.28,185.71a.26.26,0,0,1,.26-.26h4.1a2.93,2.93,0,0,1,1,5.72l1.88,3.48a.26.26,0,0,1-.23.4h-1.82a.25.25,0,0,1-.22-.12l-1.82-3.63h-.95v3.5a.27.27,0,0,1-.26.26h-1.63a.26.26,0,0,1-.26-.26Zm4.18,3.84a1.1,1.1,0,0,0,1-1.1,1.05,1.05,0,0,0-1-1h-2v2.14Z" transform="translate(-50.76 -55.32)"/><path class="cls-1" d="M166.14,185.78a.32.32,0,0,1,.33-.33h1.6a.33.33,0,0,1,.33.33v3.61l3-3.8a.4.4,0,0,1,.26-.14h1.73a.32.32,0,0,1,.25.51l-3.21,4,3.5,4.55a.32.32,0,0,1-.26.51h-1.89a.37.37,0,0,1-.25-.1l-3.17-4.31v4.09a.33.33,0,0,1-.33.33h-1.6a.32.32,0,0,1-.33-.33Z" transform="translate(-50.76 -55.32)"/><path class="cls-1" d="M85.1,134h8.34v5.87H85.1v18H78.64V116.7h17.1v5.87H85.1Z" transform="translate(-50.76 -55.32)"/><path class="cls-1" d="M106.58,134h8.87v5.87h-8.87v12h11.16v5.87H100.12V116.7h17.62v5.87H106.58Z" transform="translate(-50.76 -55.32)"/><path class="cls-1" d="M122.77,116.7h6.46v35.25h10.63v5.87h-17.1Z" transform="translate(-50.76 -55.32)"/><path class="cls-1" d="M150.42,134h8.34v5.87h-8.34v18H144V116.7h17.1v5.87H150.42Z" transform="translate(-50.76 -55.32)"/><path class="cls-1" d="M171.66,134h8.87v5.87h-8.87v12h11.16v5.87H165.2V116.7h17.62v5.87H171.66Z" transform="translate(-50.76 -55.32)"/><path class="cls-1" d="M187.86,116.7h6.46v35.25H205v5.87h-17.1Z" transform="translate(-50.76 -55.32)"/><path class="cls-1" d="M173.82,232.18l.31,0c.26-.11.63-.25,1.26-.48C174.86,231.53,176.7,230.85,173.82,232.18Z" transform="translate(-50.76 -55.32)"/><path class="cls-1" d="M179.69,229.18c0-.28-.21.09-.92.59l1.72-1.06C180.19,228.71,180.06,228.48,179.69,229.18Z" transform="translate(-50.76 -55.32)"/><path class="cls-1" d="M178.75,226.85l-1.59.78c.35-.14,1.78-.8,1.25-.53C180.06,226.31,179.71,226.44,178.75,226.85Z" transform="translate(-50.76 -55.32)"/><path class="cls-1" d="M177,229.82c-3.18,1.4-2.49,1.77.69.31C176.68,230.4,175.41,230.77,177,229.82Z" transform="translate(-50.76 -55.32)"/><path class="cls-1" d="M218,94.74l-.16.65a10,10,0,0,1,1.28,2.13C218.73,96.07,218.37,94.31,218,94.74Z" transform="translate(-50.76 -55.32)"/><path class="cls-1" d="M179.42,226.47a8.47,8.47,0,0,0,.83-.41Z" transform="translate(-50.76 -55.32)"/><path class="cls-1" d="M177.66,227.32l1.75-.86a3.11,3.11,0,0,0-.8.39A6.59,6.59,0,0,0,177.66,227.32Z" transform="translate(-50.76 -55.32)"/><polygon class="cls-1" points="129.71 170.49 126.84 171.94 130.27 170.23 129.71 170.49"/><path class="cls-1" d="M179.84,228.23l-1.37,1,1.65-1.1c.42-.26.81-.57,1.11-.79l.5-.37-.56.3S180.52,227.77,179.84,228.23Z" transform="translate(-50.76 -55.32)"/><path class="cls-1" d="M185.07,223.52c1-.62,3-1.9,1-.76C185.36,223.23,186.52,222.58,185.07,223.52Z" transform="translate(-50.76 -55.32)"/><path class="cls-1" d="M180.49,228.71c.18,0,.43-.07.8-.52l-.39.27Z" transform="translate(-50.76 -55.32)"/><path class="cls-1" d="M199.52,213.6a18.43,18.43,0,0,0-1.43,1.32l1.59-1.44C199.72,213.42,199.72,213.4,199.52,213.6Z" transform="translate(-50.76 -55.32)"/><path class="cls-1" d="M204,209.63c.89-.76.16-.1-.1.16l0,0h0c-.14.11-.19.13,0,0l.06-.05a.6.6,0,0,1,.1-.16c.45-.49,1.73-2.09.8-1.25-1.73,1.78-1.19,1.27-2.24,2.33,3-2.7-.82.82,1.41-1.06l-1.6,1.47,1.54-1.3a.58.58,0,0,0,.14-.11,6.26,6.26,0,0,0,1.08-1,13,13,0,0,1-1,.92c.65-.63,2.54-2.77,2.54-2.77C206.06,207.47,205.4,208.32,204,209.63Z" transform="translate(-50.76 -55.32)"/><path class="cls-1" d="M127.24,236a10.35,10.35,0,0,0,1.71.18C128.54,236.14,127.87,236.06,127.24,236Z" transform="translate(-50.76 -55.32)"/><path class="cls-1" d="M190.91,219.91l.11,0S191,219.85,190.91,219.91Z" transform="translate(-50.76 -55.32)"/><path class="cls-1" d="M97,65.66c-.49.39-.67.6-.6.69C96.88,66,97.14,65.7,97,65.66Z" transform="translate(-50.76 -55.32)"/><path class="cls-1" d="M180,229.46l-1.56,1c.42,0,1.94-.63,1.44-.25C181.52,229.3,181.08,229.3,180,229.46Z" transform="translate(-50.76 -55.32)"/><path class="cls-1" d="M190.51,222.27c.1.09.53,0,.11.46l.87-.76c.44-.37.86-.77.86-.77s-.45.29-.92.54Z" transform="translate(-50.76 -55.32)"/><path class="cls-1" d="M174.13,232.14c-1.29.53.94-.09,0,0Z" transform="translate(-50.76 -55.32)"/><path class="cls-1" d="M139.52,236.72l.44.75,1.15-.64A4.16,4.16,0,0,1,139.52,236.72Z" transform="translate(-50.76 -55.32)"/><polygon class="cls-1" points="104.56 178.39 104.33 178.44 106.31 178.11 104.56 178.39"/><polygon class="cls-1" points="104.61 180.27 106.55 179.44 104.83 180.03 104.61 180.27"/><path class="cls-1" d="M141.76,234.94c-.83,0-.53,0-.66.05C142.48,234.93,141.72,234.94,141.76,234.94Z" transform="translate(-50.76 -55.32)"/><path class="cls-1" d="M196.75,216l.16-.12C196.8,215.89,196.72,216,196.75,216Z" transform="translate(-50.76 -55.32)"/><path class="cls-1" d="M140,234.91l1.11,0-1.55-.08Z" transform="translate(-50.76 -55.32)"/><path class="cls-1" d="M141.78,237.58c-.85,0-.55.45-.67.54C142.53,238,141.74,237.46,141.78,237.58Z" transform="translate(-50.76 -55.32)"/><path class="cls-1" d="M225.65,131.73c.06.07.07-.08,0-.37a3.65,3.65,0,0,0-.06-.47c0-.14,0-.29-.08-.45-.15-.55-.31-1.4-.34-1l.08.42c-.14-.36-.26-.62-.34-.37l.57,2.27C225.57,131.78,225.62,131.77,225.65,131.73Z" transform="translate(-50.76 -55.32)"/><path class="cls-1" d="M173,229.24c-1.27.45.84-.27,0,0Z" transform="translate(-50.76 -55.32)"/><path class="cls-1" d="M172.74,229.32l.27-.09,1.23-.44C173.83,228.91,175.62,228.28,172.74,229.32Z" transform="translate(-50.76 -55.32)"/><path class="cls-1" d="M174,228.78a18.74,18.74,0,0,0,2.35-.87c-.84.37-1.7.64-.22,0C174.62,228.58,173.92,228.79,174,228.78Z" transform="translate(-50.76 -55.32)"/><path class="cls-1" d="M167.25,231.56l-1,.58a7.2,7.2,0,0,1,1.45-.38c.55-.13,1-.27.93-.37l-.67.1C167.59,231.53,167.25,231.56,167.25,231.56Z" transform="translate(-50.76 -55.32)"/><path class="cls-1" d="M167.72,230.84a5.31,5.31,0,0,1-.64.17l-1.1.31,1.44-.36a7.23,7.23,0,0,0,.93-.33Z" transform="translate(-50.76 -55.32)"/><path class="cls-1" d="M160.71,232.7l-1,.3,8-2.08-6.69,1.7Z" transform="translate(-50.76 -55.32)"/><path class="cls-1" d="M161.41,234.05,161,234l-.88.87c1.36-.38,2.92-.83,4.35-1.33a27.32,27.32,0,0,1,3.75-1.11C166.81,231.94,163.76,233.87,161.41,234.05Z" transform="translate(-50.76 -55.32)"/><path class="cls-1" d="M135.84,237.46s.47.11.95.17l1,.15-1.22-.42Z" transform="translate(-50.76 -55.32)"/><polygon class="cls-1" points="162.3 144.45 162.94 143.48 162.29 144.24 162.3 144.45"/><path class="cls-1" d="M213.66,197.92c0,.18.33-.41.78-1Z" transform="translate(-50.76 -55.32)"/><path class="cls-1" d="M189.22,224.2l1.54-1.34C189.23,223.8,189,224.1,189.22,224.2Z" transform="translate(-50.76 -55.32)"/><path class="cls-1" d="M200.62,216.73c-.44.81,1.25-.34.69.41a17,17,0,0,0,2.38-2.87A12.32,12.32,0,0,1,200.62,216.73Z" transform="translate(-50.76 -55.32)"/><path class="cls-1" d="M212.08,205s.2-.49.36-1l.33-1-.78,1.33Z" transform="translate(-50.76 -55.32)"/><path class="cls-1" d="M215,201.18s.13-.27.24-.56l.23-.56-.73.72Z" transform="translate(-50.76 -55.32)"/><path class="cls-1" d="M214.44,198.48c.11.29.35-.4.75-1.07C215,197.78,214.7,198.15,214.44,198.48Z" transform="translate(-50.76 -55.32)"/><path class="cls-1" d="M231.86,158.88a25.11,25.11,0,0,0,.69-3.11C232.08,157.27,231.51,158.42,231.86,158.88Z" transform="translate(-50.76 -55.32)"/><path class="cls-1" d="M232.56,155.77a7.65,7.65,0,0,0,.31-3.66c-.07.22-.11.44-.17.66A18.34,18.34,0,0,1,232.56,155.77Z" transform="translate(-50.76 -55.32)"/><path class="cls-1" d="M219.68,194.27s.26-.45.48-.91l.45-.93a5.67,5.67,0,0,1-1.1,1.5C219.65,194,220,193.72,219.68,194.27Z" transform="translate(-50.76 -55.32)"/><path class="cls-1" d="M217.13,194.89c-.49-.13-1,1.06-1.76,2.25l.15-.2C215.8,197.64,216.51,196.29,217.13,194.89Z" transform="translate(-50.76 -55.32)"/><path class="cls-1" d="M225.14,182.52c-.39.57.36.63,0,.91C225.41,184.35,226.38,179,225.14,182.52Z" transform="translate(-50.76 -55.32)"/><path class="cls-1" d="M200.09,214l-.79.4c.93-.83,1.7-1.59,2.39-2.27-.81.76-1.71,1.53-2.89,2.49l-.06.07-.22.11.23.14c-1.54,1.15-1,1.11-1.1,1.42L198,216c.24-.21.55-.5.85-.8Zm-.84.43-.14.07C199.22,214.39,199.29,214.34,199.25,214.39Z" transform="translate(-50.76 -55.32)"/><path class="cls-1" d="M193.65,218.32l-.68.38-.63.45A12,12,0,0,0,193.65,218.32Z" transform="translate(-50.76 -55.32)"/><polygon class="cls-1" points="144.05 162.26 143.2 162.98 144.74 161.71 144.05 162.26"/><path class="cls-1" d="M192.95,218.71h0l.89-.64Z" transform="translate(-50.76 -55.32)"/><path class="cls-1" d="M193.86,218.05l.47-.34Z" transform="translate(-50.76 -55.32)"/><path class="cls-1" d="M195.23,220.49l-.93.07-.65.45A2.78,2.78,0,0,0,195.23,220.49Z" transform="translate(-50.76 -55.32)"/><path class="cls-1" d="M197.17,215.67l.92-.75-1.18.91Z" transform="translate(-50.76 -55.32)"/><path class="cls-1" d="M201.7,212.09c.43-.41.85-.81,1.25-1.23Z" transform="translate(-50.76 -55.32)"/><polygon class="cls-1" points="142.25 165.46 142.34 165.15 141.58 165.88 142.25 165.46"/><path class="cls-1" d="M195.94,221l.66-.84.63-.87-.58.72Z" transform="translate(-50.76 -55.32)"/><path class="cls-1" d="M193.49,221.13l.16-.11C193.56,221,193.52,221,193.49,221.13Z" transform="translate(-50.76 -55.32)"/><path class="cls-1" d="M223.36,186.69c.22-.29.45-.63.68-1C223.92,185.83,223.71,186.14,223.36,186.69Z" transform="translate(-50.76 -55.32)"/><path class="cls-1" d="M194.27,220.56h0l1.41-1Z" transform="translate(-50.76 -55.32)"/><polygon class="cls-1" points="141.39 163.79 140.59 164.42 141.21 163.97 141.39 163.79"/><path class="cls-1" d="M205.41,211c.17-.8,1.41-2.47.17-1.91-1.74,1.82-1,1.52-1.91,2.73,2.87-2.91-.66,1,1.67-.84-.53.62-1,1.14-1.52,1.63.58-.47,1.15-.91,1.7-1.31l-.09,0h0c-.17.08-.24.09-.07,0l.06-.07a.49.49,0,0,1,0-.26c.93-.75.23,0,0,.26,0,0,0,.07,0,.09h0s.71-.75,1.36-1.56l1.33-1.58C207.46,208.8,206.75,209.63,205.41,211Z" transform="translate(-50.76 -55.32)"/><path class="cls-1" d="M209,207.34l-.46.48.16-.26-.56.67a23.46,23.46,0,0,1,2.47-1.83c.79-1.24.85-1.58.81-1.75l-1.42,1.6Z" transform="translate(-50.76 -55.32)"/><path class="cls-1" d="M200.78,215.06a4.79,4.79,0,0,0-1.39,1.44c.49-.49,1-1,1.6-1.5C201,214.89,201,214.85,200.78,215.06Z" transform="translate(-50.76 -55.32)"/><path class="cls-1" d="M189.48,221s1.91-1.17,1.88-1.23-1.78,1.08-1.78,1.08S190,220.65,189.48,221Z" transform="translate(-50.76 -55.32)"/><path class="cls-1" d="M197.17,215.67l-.11.08C197.32,215.6,197.28,215.61,197.17,215.67Z" transform="translate(-50.76 -55.32)"/><path class="cls-1" d="M191.61,221l.16,0S191.74,220.93,191.61,221Z" transform="translate(-50.76 -55.32)"/><path class="cls-1" d="M187.9,221.7c.13,0,.14,0,.17,0C188.26,221.53,188.32,221.45,187.9,221.7Z" transform="translate(-50.76 -55.32)"/><path class="cls-1" d="M186.76,222.71l.74-.41c-.29.32-.34.51.7,0l.21-.21a15.65,15.65,0,0,1,3.2-1.18,5.81,5.81,0,0,0-2.16.1,3.27,3.27,0,0,1-1.14,1c-.38.16-.41.11-.37,0a4.77,4.77,0,0,1,.62-.31c.07-.07-.35.14-.57.23l0,0,1.52-1c-.82.48-1.26.75-1.49.9,0-.06.05-.11,0-.14l-.45.45Z" transform="translate(-50.76 -55.32)"/><path class="cls-1" d="M200.19,213.15c.64-.63,1.38-1.29,2.21-2l-2.72,2.36C199.58,213.61,199.23,214,200.19,213.15Z" transform="translate(-50.76 -55.32)"/><path class="cls-1" d="M198.29,217.57a1.55,1.55,0,0,1,.33-.09,8.34,8.34,0,0,0,.77-1C199,216.87,198.6,217.23,198.29,217.57Z" transform="translate(-50.76 -55.32)"/><path class="cls-1" d="M211.54,204.48l-.19.08,0,.09Z" transform="translate(-50.76 -55.32)"/><path class="cls-1" d="M219.61,188.09c-.34.63-.72,1.19-.89,1.56C218.91,189.31,219.37,188.61,219.61,188.09Z" transform="translate(-50.76 -55.32)"/><path class="cls-1" d="M224.2,185.51c-.39.87,0,.16,0,0Z" transform="translate(-50.76 -55.32)"/><path class="cls-1" d="M219.87,188.22a10.26,10.26,0,0,0-.81,1.61A15.34,15.34,0,0,0,219.87,188.22Z" transform="translate(-50.76 -55.32)"/><path class="cls-1" d="M224.2,185.51l.52-1.22c-.22.5-.45,1-.68,1.38C224.15,185.52,224.21,185.46,224.2,185.51Z" transform="translate(-50.76 -55.32)"/><path class="cls-1" d="M223.65,186.62l-.42.72C223.25,187.49,223.35,187.41,223.65,186.62Z" transform="translate(-50.76 -55.32)"/><path class="cls-1" d="M201.72,214.9a27,27,0,0,1,2.1-2.26c-.93.79-1.92,1.58-2.83,2.36C201,215.22,200.74,215.77,201.72,214.9Z" transform="translate(-50.76 -55.32)"/><path class="cls-1" d="M188.17,225.06c.67-.23,1.83-.86,2-.69,0-.21-.76-.06-1-.17l-.52.44Z" transform="translate(-50.76 -55.32)"/><path class="cls-1" d="M198.15,217.71l.14-.15C198.16,217.61,198.08,217.66,198.15,217.71Z" transform="translate(-50.76 -55.32)"/><path class="cls-1" d="M206.84,210.38l-1.32.94C206,211.12,206.82,210.6,206.84,210.38Z" transform="translate(-50.76 -55.32)"/><path class="cls-1" d="M186.6,223.7c-.56.7.73.23-.59,1.47C186.89,224.34,188.84,222.88,186.6,223.7Z" transform="translate(-50.76 -55.32)"/><path class="cls-1" d="M198.62,217.48l-.09.1C198.83,217.47,198.76,217.46,198.62,217.48Z" transform="translate(-50.76 -55.32)"/><path class="cls-1" d="M204.74,212.75c-.36.45-.69,1-1.05,1.52A10.43,10.43,0,0,0,204.74,212.75Z" transform="translate(-50.76 -55.32)"/><path class="cls-1" d="M188.87,74.74a16.13,16.13,0,0,0-1.39-1.08c-.23-.13-.46-.23-1.13-.64a1.27,1.27,0,0,0-.23-.18.2.2,0,0,1,0,0c-.47-.31.12,0,.1,0-.48-.27-1.67-1-.22,0l.15.08a.12.12,0,0,1,0,.06.6.6,0,0,0,.19,0C187.37,73.69,188.51,74.48,188.87,74.74Z" transform="translate(-50.76 -55.32)"/><path class="cls-1" d="M188.87,74.74l.1.09C189,74.86,189,74.82,188.87,74.74Z" transform="translate(-50.76 -55.32)"/><path class="cls-1" d="M190.56,76.31v0l1.26,1Z" transform="translate(-50.76 -55.32)"/><path class="cls-1" d="M186.16,72.79c.1.07.09.07.09.08C186.47,73,186.55,73,186.16,72.79Z" transform="translate(-50.76 -55.32)"/><path class="cls-1" d="M191.1,76.85l-.53-.53-.58-.45A10.45,10.45,0,0,0,191.1,76.85Z" transform="translate(-50.76 -55.32)"/><polygon class="cls-1" points="139.21 20.36 138.42 19.8 139 20.25 139.21 20.36"/><path class="cls-1" d="M187.34,74s1.87,1.05,1.84,1.11-1.66-1.1-1.66-1.1S187.82,74.27,187.34,74Z" transform="translate(-50.76 -55.32)"/><polygon class="cls-1" points="128.15 13.7 125.34 12.41 128.68 13.96 128.15 13.7"/><path class="cls-1" d="M183.83,72.69c-.84-.1.12.72-1.49.27C183.4,73.26,185.52,74.14,183.83,72.69Z" transform="translate(-50.76 -55.32)"/><path class="cls-1" d="M184.31,71.87c-.7-.37.36.34-1.08-.48C184.18,71.93,186.17,73.1,184.31,71.87Z" transform="translate(-50.76 -55.32)"/><path class="cls-1" d="M221.88,185.74l-.38.72C221.47,186.58,221.54,186.49,221.88,185.74Z" transform="translate(-50.76 -55.32)"/><path class="cls-1" d="M177,68.25c.15,0-.2-.1-.91-.43l1.69.8A2.89,2.89,0,0,0,177,68.25Z" transform="translate(-50.76 -55.32)"/><path class="cls-1" d="M188.18,75.79l0,.15C188.27,76,188.25,75.89,188.18,75.79Z" transform="translate(-50.76 -55.32)"/><path class="cls-1" d="M189.29,78.08v0l1.25.92Z" transform="translate(-50.76 -55.32)"/><path class="cls-1" d="M189.6,78.91l-.3-.81-.58-.42A2.39,2.39,0,0,0,189.6,78.91Z" transform="translate(-50.76 -55.32)"/><path class="cls-1" d="M188.58,77.57l.15.11C188.69,77.6,188.67,77.56,188.58,77.57Z" transform="translate(-50.76 -55.32)"/><path class="cls-1" d="M186.25,75.69l1,.42c.49.2,1,.44,1,.44s-.38-.31-.78-.59l-.79-.57C186.58,75.52,186.77,75.87,186.25,75.69Z" transform="translate(-50.76 -55.32)"/><polygon class="cls-1" points="138.3 21.67 137.43 21.24 138 21.69 138.3 21.67"/><path class="cls-1" d="M208,97l-.39-.85-.45.15s.22.17.42.35Z" transform="translate(-50.76 -55.32)"/><path class="cls-1" d="M196.53,85.21a8.45,8.45,0,0,0,1.42.84A16.19,16.19,0,0,0,196.53,85.21Z" transform="translate(-50.76 -55.32)"/><path class="cls-1" d="M193.69,83.53a16.46,16.46,0,0,0,2.84,1.69A11,11,0,0,1,194,82.79C193.22,82.55,194.43,83.9,193.69,83.53Z" transform="translate(-50.76 -55.32)"/><path class="cls-1" d="M206.13,94l-1-1-.67,0s.44.21.85.46Z" transform="translate(-50.76 -55.32)"/><polygon class="cls-1" points="142 22.88 141.32 22.41 140.44 21.82 142 22.88"/><path class="cls-1" d="M189.32,79.71l.92.28.9.32-.75-.33Z" transform="translate(-50.76 -55.32)"/><path class="cls-1" d="M174,66.78c-2.2-.84-1.59-.61,1.13.55C174.73,67.09,174.21,66.86,174,66.78Z" transform="translate(-50.76 -55.32)"/><path class="cls-1" d="M141.71,62.64c-.77-.06-.49.42-.61.5C142.39,63.08,141.68,62.52,141.71,62.64Z" transform="translate(-50.76 -55.32)"/><path class="cls-1" d="M139.64,61.83l.42.73,1-.69A3.54,3.54,0,0,1,139.64,61.83Z" transform="translate(-50.76 -55.32)"/><path class="cls-1" d="M141.1,60l-1.49.07.42,0Z" transform="translate(-50.76 -55.32)"/><path class="cls-1" d="M141.73,60c-.79,0-.5,0-.63,0C142.43,60.1,141.7,60,141.73,60Z" transform="translate(-50.76 -55.32)"/><polygon class="cls-1" points="104.04 5.87 103.81 5.84 105.73 6.11 104.04 5.87"/><path class="cls-1" d="M166.3,65.41c-.87-1.08-4.23-1.14-6.26-1.84l-.31-.26-1.08.42c1.27.26,2.78.42,4.15.71A20.27,20.27,0,0,1,166.3,65.41Z" transform="translate(-50.76 -55.32)"/><polygon class="cls-1" points="103.8 7.32 103.55 7.47 105.5 7.34 103.8 7.32"/><path class="cls-1" d="M177.79,68.62a6.08,6.08,0,0,0,.8.38Z" transform="translate(-50.76 -55.32)"/><path class="cls-1" d="M196.94,215.43l.42-.32a7.89,7.89,0,0,0,.88-.73l1.22-1.14-1.32,1.07h.1C196.77,215.49,197.09,215.24,196.94,215.43Z" transform="translate(-50.76 -55.32)"/><path class="cls-1" d="M219.84,188a1,1,0,0,1-.08.37C219.83,188.17,219.87,188,219.84,188Z" transform="translate(-50.76 -55.32)"/><path class="cls-1" d="M217,108.32l-.31-.7C216.62,107.54,216.64,107.64,217,108.32Z" transform="translate(-50.76 -55.32)"/><path class="cls-1" d="M233.47,138.13a19,19,0,0,0-.29-3.4c-.2-1.21-.37-2.46-.62-3.6s-.45-2.18-.54-3h-.59a27,27,0,0,0-.81-3.32l-.53-1.75c-.21-.6-.45-1.22-.69-1.88l-.44.3a27.14,27.14,0,0,1-1.28-4.27l-.67-2.62c-.27-.89-.59-1.78-1-2.67a3.79,3.79,0,0,1,.73,1.77,13.65,13.65,0,0,0-.94-3.39,32.74,32.74,0,0,0-1.68-3.14c-.58-1-1.26-2-1.81-3a18.37,18.37,0,0,1-1.36-3,6.65,6.65,0,0,1-1.24-2.17,1.27,1.27,0,0,0,.15.21l-.21-.37a14.22,14.22,0,0,0-.52-1.36c.13.43.27.83.4,1.17a27.51,27.51,0,0,0-1.87-2.58l.18-.72-.16-.22c-.46-1.09-.72-.64-.73.11a7.76,7.76,0,0,0-1.15-1.09c.16-1.26-2-2.36-2.05-3.91A16.07,16.07,0,0,1,211.37,88a8.24,8.24,0,0,0-2.44-1.83,10.13,10.13,0,0,0-2.57-2.71l.12-.88-1.32-.7-1.35-.65c-.95-1.49-1.31-2.18.31-1.37-1.78-1.16-2.46-1.64-3.1-2.08a19.16,19.16,0,0,0-2.79-1.66l.42-.24c-1-.77-3-1.53-3.32-2.3-.88-1.17-3.69-3.26-7.12-5.41s-7.53-4.25-10.73-6c.37.9-.33.4-1.23-.18s-2-1.23-2.33-.81c-.28-.45-1.17-1,0-.8-1.78-.57-3.09-1.07-4.26-1.55a8,8,0,0,0-3.61-.69c-.33-.42.89-.22.58-.5a3.27,3.27,0,0,1-1.54-.35c-.32-.28.6-.1,1.21-.07a13.09,13.09,0,0,0-2.25-.44,4.06,4.06,0,0,0-1.37.14,1.94,1.94,0,0,0-1.18,1,8.47,8.47,0,0,0-2.2-.79,5.44,5.44,0,0,0-2,.15c-.6-.41-1.64-.91.69-.6-.65-.11-2.6-.67-4.47-.87s-3.57-.39-3.68,0a6,6,0,0,0-2.18-.14,48.33,48.33,0,0,0-6.1-.29l.8.14c-1.15.82-2.4.19-4.73.35l.06-.09a11.68,11.68,0,0,0-3.82.05,19,19,0,0,1-3.78.13l.35.5c-.18.61-1.34.59-2.85.51a15.26,15.26,0,0,0-4.82.46l1.15.1a6.84,6.84,0,0,1-3.24,0,11.39,11.39,0,0,0-3.38-.27c-.38,0,.52-.33,1-.52-4.5.54-.38.84-3.52,1.9-.7-.19.47-1.18-1.69-.58a18,18,0,0,0-3.71,1.7,19.28,19.28,0,0,1-5.06,2.16c.73,0,1.45,0,.14.83-2.09,1-6.26,1.73-7.66,3.61-.3.08-.43.07-.48,0-.71.57-2,1.34-3,2.2A12.82,12.82,0,0,0,91,70.73c-.62-.18-1.44.22-2.38.84A20.8,20.8,0,0,0,85.68,74c-1.9,1.75-3.49,3.51-4,2.84,0,0-1,.91-2,1.86l-2,1.94,0-.23A15.62,15.62,0,0,0,75,83.27a10.08,10.08,0,0,0-1.06,1.94c-.62.54-.35,0-.37-.13A28.36,28.36,0,0,0,70,89a23.35,23.35,0,0,0-2.23,4.17l-.72,0c-.46,1.07-5,5.69-6.74,10.55,0-.07-.08-.22,0-.61-1,2.68-2.43,5.59-3.74,8.28a32.82,32.82,0,0,0-2.27,8.26c-.13.93-1.44,8.66-2.07,8.4-2,7.48-1.54,13.44-1.34,20.6a66.75,66.75,0,0,0,0,7.15l1,6.22.18,1.06a27.19,27.19,0,0,1,1.33,4.67c-.06,0,.54,2.52.67,3a89.05,89.05,0,0,0,3,9.54c.65,1.65,1.44,3.2,2,4.48a24.24,24.24,0,0,1,1.19,2.61c.38.49.74,1,1.08,1.5s.71,1,1,1.56c.68,1.08,1.31,2.27,2.12,3.52-.28-.7,1,1.86,1.79,3.19a16.36,16.36,0,0,1,2.09,4.1c-.29-1,.88.46,2,1.75a11.61,11.61,0,0,1,2.15,2.86c3.8,3.45,7.55,8.46,12.73,12.22a23.47,23.47,0,0,1,2.9,2.39c1.1.63,2.66.78,3.4,1.18a63.09,63.09,0,0,0,16.64,8.78c6,2.22,12.07,3.9,18.18,5.82-1.63-.68-.49-.52.79-.3-.82-.24.09-.48,0-.78l.79.23,1.76.48,1.77.48c.48.13.81.19.81.19.52-.34,1.92-.24,3.28-.15s2.67.08,2.95-.26l-1.67.09c1.12-.4.36-.87-.6-1.42l-.25-.15,1.79.1-1.19-.08-.6,0,0,0c.86,0,1.73.07,2.59.09h0c.83,0,1.66.06,2.5.06A88.46,88.46,0,0,0,187,222.05a3.76,3.76,0,0,0,.76-.41l.23-.15c1.11-.64,2.49-1.39,2.89-1.59a17.12,17.12,0,0,0-1.69.79c-.24.16-.43.32-1.25.8l-.32.17a89.63,89.63,0,0,0,18.16-14.81h0l.1-.12a1.41,1.41,0,0,0-.15.18l.24.12c.73-.79,1.16-1.46.64-1.08.53-.58,1-1.18,1.56-1.77-.22.34-.14.41.12.29a.52.52,0,0,0,.19.42l-1.48,1.57.18-.22-.56.63c.64-.65,1.14-1.12,2-1.9a3.77,3.77,0,0,0,2.68-.42c-.12-.18-.21-.27.87-2.09-.61.46-3.42,3.18-2.58,1.59.28-.39.51-.69.71-.93l-.14.32a5.66,5.66,0,0,0,.5-.75c.6-.65.78-.55,1.51-1.18-1,.49,1-2.47.66-3.14q1.23-1.67,2.38-3.4h0l0,0,.51-.07a16.52,16.52,0,0,1-1.12,1.68l.15-.2c-.05.39.55-.43,1.15-1.51h0v-.09l.26-.5c-.07,0-.15.1-.25.24l0-.56-.24.32.06-.15a3.26,3.26,0,0,0,.51-.87q2.09-3.31,3.89-6.8c-.1.27-.21.55-.32.79l-.12.22s0,0,0,0l-.06.13.06-.1a4.7,4.7,0,0,1-.2.53l.7-1.4.86-1.53c.19-.32.36-.64.51-.94,0,0,.09-.11.27-.44l-.81,2s0,0,0,0L220,187.6c.1,0,0,.29-.1.63.35-.67.75-1.35,1-1.85l-.2.48c-.24.55-.49,1.12-.79,1.72s-.71,1.15-1.12,1.75l-.5.34a13.51,13.51,0,0,0,1.48-2.28c-.53,1.09-2.61,3.62-3,4.92l1.21-1.65c-1,1.8-2,4.23-3.74,6.18.9-.81.35-.48,1.67-1.8-.7.72.83-1.62,1.69-3a2,2,0,0,0-.16.72l.76-.74c.39-.36.74-.76.74-.76-.36,1-.81,2.12-1.3,3.28a12.47,12.47,0,0,1-2,3.32c1.25-.59.29-.53,2-1.62-1.7.82,3.68-5.68,1.39-4,1.74-1.19,2.05-2.64,3.9-4.51-.24,0-.8.59.32-1.33a2.66,2.66,0,0,1,0-.52l.08-.13-.08.1c0-.1,0-.11,0,0a3.4,3.4,0,0,1-.83.85,11.35,11.35,0,0,1,.85-2.77,28.42,28.42,0,0,0,.93-2.78c.64-1.14,0,.6.53.05l.18-.89.14-.9c.53,0,2.07-2.93,1.2.07l1-2.59a17.1,17.1,0,0,0,1.89-5c.47-1.24.37-3.36.44-2.15l.44-2.15.34-2.17h.13a53.39,53.39,0,0,0,1-6.6,44.19,44.19,0,0,1,1.14-7.05c0-.73,0-1.47,0-2.33a29.48,29.48,0,0,1,.11-3.05l.45-.47c0-.94,0-2.34.07-3.62a6.55,6.55,0,0,0-.23-2.81A5.84,5.84,0,0,0,233.47,138.13ZM52.56,167.67V167C53,168.36,52.8,168,52.56,167.67ZM229,124l0,.65-.23-.77A1,1,0,0,1,229,124Zm-.17,6.24a1.59,1.59,0,0,1,0,.24c-.18-1-.37-2.08-.59-3.11l.46-.13A20.8,20.8,0,0,1,228.79,130.21Zm-1.44-6.44a.78.78,0,0,1,.79.41c0,.17.22,1.39.44,2.72l0,.12-.53-.11c-.23-1-.46-2.1-.72-3.13Zm-.54,25.4a2.05,2.05,0,0,0,.17-.25q0,1.31-.13,2.6c0-.19-.09-.38-.14-.58,0-.55-.07-1.11-.08-1.61C226.69,149.39,226.75,149.3,226.81,149.17Zm-2.54-38.91c.41.64.77,1.32.77,1.32l-.37-.34c0-.14-.09-.28-.14-.41s-.24-.48-.36-.73Zm-.13,13.83c0,.07,0,.15,0,.21a4.66,4.66,0,0,0-.09-.9,85.34,85.34,0,0,1,2.36,12.2l-.09-.14a40,40,0,0,1-1.49-5.69c-.67-3.12,0-1.41-.15-2a31.69,31.69,0,0,0-1.64-5.2c-.43-1.08-.74-2-1.5-4.42a5,5,0,0,1-.11-.65c.2.07.38.12.48,0l.06,0a12.87,12.87,0,0,1,.9,3,16.89,16.89,0,0,0,.46,2.55l-.32-2.18c.07.13.15.28.23.46.1.55.21,1.08.36,1.64l-.29-1.49c.14.31.28.66.41,1,.18.62.34,1.26.42,1.72C224.15,124.24,224.14,124.16,224.13,124.09Zm.33,6.89c-.12-.35-.23-.7-.34-1.08-.36-1.3-.35-1.76-.24-1.9C224.1,129,224.29,130,224.46,131ZM222,121c.24,1.19,1,2.91.55,1.93l.2.69c-.16-.27-.32-.52-.48-.75a10.41,10.41,0,0,1-1.66-4.31c0-.57.07-.86.2-1C221.15,118.77,221.62,120.09,222,121Zm-.74-2.8,0,.06C221.65,119.61,221.51,119.12,221.22,118.18Zm2.26-10,0,.6-.55-1c-.25-.43-.48-.85-.71-1.28A11.32,11.32,0,0,1,223.48,108.13Zm-.78.36.15.75.41.72L222,108.78q-1-2.19-2.12-4.32A27.89,27.89,0,0,1,222.7,108.48Zm-2.81,10.22c.25,1.39.17.9,0-.05Zm-11-32.59a.7.7,0,0,0-.28,0C208.71,86,208.54,85.7,208.92,86.12Zm-.32,6.58-.2-.17c-.49-.6-1.15-1.46-1.83-2.26l-.09-.16Q207.56,91.38,208.6,92.69ZM203.51,81a.64.64,0,0,0-.39.26l-.48-.58Zm-.47.36,0,0c-.13,0-.17.16-.2.32-.45-.43-.9-.87-1.35-1.29ZM159.63,58.73l.37-.09h-.89l-.82-.15-.53-.3,1,.11c.6.08,1.18.2,1.52.28l-.25.06h.47l.07,0c.43.16,0,.17-.57.14l.66.1a2.94,2.94,0,0,1,.61.26c-.55-.13-1.09-.26-1.64-.38l.36,0Zm-.82-.83c.93.08,1.86.21,1.86.21.24.12.19.23,0,.33-.58-.19-1.06-.33-1.52-.44a12.16,12.16,0,0,0-1.9-.09l-.3-.15Zm-2.4,172,1.53-.45c.85-.26,1.68-.57,1.68-.57.21,0,.25.09.19.21a14.84,14.84,0,0,0-1.54.34,10.8,10.8,0,0,0-1.75.48Zm4.17-.34c-.56.13-1.11.27-1.67.39l0,0,.34-.17-.26.09.23-.19-.75.37-.2.06-.52.09h-.18l-.68-.12,1.07-.21c.62-.14,1.22-.33,1.52-.42l-.26.23.58-.31c.21,0-.09.17-.56.41l.61-.23a1.89,1.89,0,0,1,.67,0l0,0A.08.08,0,0,1,160.58,229.53Zm38.53-20.34.15-.36,1-1.44.06.05c0,.1.15.15.3.18l.08,0C200.19,208.18,199.66,208.7,199.11,209.19Zm.63-1.59L200,207a.58.58,0,0,0,.18.35Zm4.77-5.94a.71.71,0,0,0,0,.27C204.42,201.88,204.19,202.06,204.52,201.66Zm4.49,1.62q.85-1,1.66-2A13.27,13.27,0,0,1,209,203.28Zm10.23-21.92-.12.5q-.94,2-2,4v-.11a26.57,26.57,0,0,1,1.31-4.55l.48-.56.34-.86C219.26,180.28,219.25,180.81,219.24,181.36Zm-1.73.66c.08-.37.16-.75.27-1.11l.3-.23-.36.83Zm1.33-3.11c.18-.63.3-1.24.3-1.24s0,.25,0,.39-.12.3-.18.45Zm3.65,5.54-.2.39c.09-.16.13-.22.12-.18l0-.1c-.24.88-.53,1.79-.88,2.76-.21.57-.45,1.16-.75,1.76a17.42,17.42,0,0,1-1.11,1.79l-.88.13a5.18,5.18,0,0,0,1.54-2.27c-.24.82-1.51,2.09-2.31,3.32,0,0-.13.09-.35.35a33.54,33.54,0,0,0,2.68-3.74s0,0,0,0,0,0,0-.05l.63-1c-.11,0-.54.71.47-1.22,0-.1.1-.32.15-.46l.07-.13-.06.11c0-.09,0-.1,0,0a7.55,7.55,0,0,1-.61.93,34.1,34.1,0,0,1,1.37-3.25c-.15.65-.29,1.21.21.38C222.57,184.2,222.52,184.32,222.49,184.44Zm.57-31.78c-.14.88-.23,1.93-.36,3s-.16,2.2-.31,3.23-.29,2-.47,2.67l.54.22c-.17,1-.42,2-.58,3s-.33,2.17-.59,3.42h.53a12.84,12.84,0,0,1-1.21,3.91l-1,2.27c-.36.77-.72,1.56-1,2.38a3.16,3.16,0,0,1,.62-1.63,11.34,11.34,0,0,0-1.51,2.81c-.41,1-.77,2-1.09,3a24.5,24.5,0,0,1-1.12,3,8.91,8.91,0,0,1-1.57,2.52,5.53,5.53,0,0,1-1.14,2,1.07,1.07,0,0,0,.09-.22l-.2.33c-.27.32-.59.62-.91,1a5.24,5.24,0,0,0,.81-.79c-.35.63-.91,1.57-1.38,2.56l-.7.09-.12.22c-.73.77-.24.86.4.61-.21.51-.43,1-.54,1.36-1.23.18-1.37,2.52-2.88,2.86a13.42,13.42,0,0,1-1.53,2.69,7.33,7.33,0,0,0-1.32,2.51,13.45,13.45,0,0,0-2.32,2.61l-.85-.11-.58,1.28-.63,1.25c-1.47.81-2.1,1.08-1.32-.4a17,17,0,0,1-2.12,2.72,21.45,21.45,0,0,0-1.91,2.38l-.16-.45c-.91.73-2,2.37-2.8,2.52-1.32.44-3.95,2.31-7.14,4.27a49.77,49.77,0,0,1-10.25,4.82c.85.33.09.53-.88.74s-2.14.41-2.08.93c-.46-.14-1.33,0-.55-.57h0a19.44,19.44,0,0,1-3.78,1.31A9.52,9.52,0,0,0,164,226.3c-.46-.2.57-.64.19-.72-.24.14-1,.56-1.35.47s.41-.39.88-.67a10.73,10.73,0,0,0-1.92.75,3.42,3.42,0,0,0-1,.7,2,2,0,0,0-.52,1.43,7.4,7.4,0,0,0-2.17.22,4.81,4.81,0,0,0-1.67.8c-.67-.18-1.73-.3.39-.79-.61.06-2.45.37-4.18.54s-3.28.5-3.32.84a5.22,5.22,0,0,0-2,.18c-2.75.2-3,0-5.7.2l.75.1c-1.06.93-2.26.2-4.45.25l.07-.09a16.06,16.06,0,0,0-3.57-.39,9.41,9.41,0,0,1-3.48-.59l.2.57c-.3.55-1.38.24-2.73-.2a15,15,0,0,0-4.4-1.18l1,.49a4.85,4.85,0,0,1-2.77-1.27l-.2-.15c-.47,0-.87.09-1.26.13-.71-.3-.14-.32-.06-.39-2.26-.74-3.51-1.09-4.68-1.38s-2.31-.31-4.33-.6l-.22-.66c-1.17,0-6.11-3.18-10.49-4.74.07,0,.2-.09.56,0a25.2,25.2,0,0,1-6.08-3.57,5.24,5.24,0,0,0-1.28-.42,1.83,1.83,0,0,0-.4-.84c-1.92-1.43-3.52-2.57-4.77-2.34,0,0-8.13-5.8-7.53-6.28-6.49-6.05-11.33-13.32-15.35-20.47l-1.6-1.33c-.2-.76-.88-3.81-.88-3.81l.08.38c-.86-1.09-1.33-1-2.23-3.32-.46-1.51-2.82-7.46-3-5.64.14-1.36-.82-4.6-1.58-7.79-.41-1.58-.7-3.16-1-4.42a15.07,15.07,0,0,1-.32-2.62c-.2-.54-.38-1.08-.53-1.64s-.23-1.13-.32-1.71a29.6,29.6,0,0,1-.35-3.8,21.5,21.5,0,0,1,.08-3.38c.11-1.43.09-3.22.7-4.15-.39.84-.37-.84-.4-2.4a7.13,7.13,0,0,1,.44-3.24c-.17-4.76,1.71-10.18,3.12-15.73-.16-.15.4-4.59,1.81-6.28a121.41,121.41,0,0,1,7.46-15.52A44.56,44.56,0,0,1,79,87c-1.34.83-.66.07.15-.79-.6.49-.33-.36-.63-.45l.63-.43,1.38-.94,1.37-.93c.37-.26.64-.4.64-.4.09-.56,1.06-1.4,2-2.21s1.91-1.49,1.89-1.95c0,0,6.68-2.68,8.85-3.23a124.22,124.22,0,0,1,15.38-8.24,46,46,0,0,1,17.1-3.8c-1.6-.1-.59-.33.6-.55-.78,0-.06-.49-.25-.73h.78l1.7,0,1.69,0c.46,0,.77,0,.77,0,.41-.41,1.71-.52,3-.62s2.47-.1,2.72-.48l-1.55.17c1-.42.35-.86-.55-1.29l1.32-.05-1.15,0h-.19l-.08,0,2.16-.12-1.57.09c1.07-.07.27-.06-.73,0l-.21-.09c1.63-.09,3.26-.15,4.91-.15a85.71,85.71,0,0,1,62.66,27.21,1.5,1.5,0,0,0-.23-.2l0,0h0v0l-.1.18a4.6,4.6,0,0,0,1,.87s0,0,0,0,.05-.06-.05-.22c.63.68,1.23,1.38,1.83,2.08L206,89.7c-.42-.37-.57-.38-.52-.15a.54.54,0,0,0-.41.23l-1.37-1.55.2.19-.55-.59c.56.67,1,1.19,1.63,2.09a4.13,4.13,0,0,0,0,2.48c.18-.07.35-.23,1.75,1.14-.18-.71-2.33-3.67-.95-2.69.33.32.56.56.75.78l-.28-.15a7.42,7.42,0,0,1,.73.72c.36.56.23.8.63,1.52-.18-1,1.73,1.05,2.59,1.32.12.1.19.13.18,0h0c.79,1.07,1.54,2.18,2.28,3.29h0v0l.07.13.25.36h0a3.94,3.94,0,0,0,.76,1.17c.17.27.33.56.5.83v0l0,.05c1.14,1.86,2.23,3.75,3.24,5.7-.26-.38-.51-.8-.65-1l1.17,2.52c.3.62.55,1.27.75,1.75l.08.21c-.37-.62-.86-1.51-.42-.49l-1.55-2.77-.82-1.6c-.33-.53-.66-1.1-1-1.71l-.05-.57a9,9,0,0,0,.76,1.46,4.09,4.09,0,0,0-.36-.48c.19.32.62,1,.93,1.45l-.24-.44.18.26c-.68-.94-1.91-3.82-2.84-4.74l.86,1.76c-1.17-1.61-2.46-3.67-3.94-5.63.46,1,.37.44,1.15,2-.27-.83.76,1,1.55,2.3l-.18-.09.32.94c.17.46.29.95.29.95-.63-.76-1.48-1.51-2.26-2.37a18.42,18.42,0,0,1-2.18-2.8c.07,1.29.39.41.7,2.25,0-1.8,3.26,5.17,2.88,2.62.06,2,1.23,2.81,1.56,5.21.17-.17,0-.92.83.91a2.27,2.27,0,0,1,.38.3l0,.13,0-.11c.07.06.08.07,0,0a2.92,2.92,0,0,1-.16-1.07,8,8,0,0,1,1.62,2.12,24.74,24.74,0,0,0,1.38,2.33c.4,1.14-.45-.35-.4.34l.52.66.49.68c-.41.35.38,3.27-.93.77l.91,2.35a17.5,17.5,0,0,0,1.37,4.58c.22,1.17,1.36,2.73.7,1.84l.69,1.86.6,1.89-.12.06,1.44,5.89a20,20,0,0,1,.35,6.48c.11.65.24,1.31.33,2.09a24.33,24.33,0,0,1,0,2.78l-.43.44a16.75,16.75,0,0,1-.14,3.25,7,7,0,0,0,0,2.53A4.89,4.89,0,0,0,223.06,152.66Zm-5.76-43.84c-.4-.52-.82-1.05-1.21-1.64s-.64-1-.94-1.51a15,15,0,0,1-.91-1.73l.29-.68.06.11a6,6,0,0,0,.95,1.92,6.34,6.34,0,0,1-.62-1.34c.24.44.49.92.73,1.46l-.11-.13.11.13a11.88,11.88,0,0,1,.44,1.15c0-.11-.2-.83.63,1,.06.07.18.26.26.37l.05.13,0-.11c0,.07.05.08,0,0a7.42,7.42,0,0,1-.33-1,22,22,0,0,1,1.29,2.3c-.08,0-.09.06,0,.49-.2-.31-.43-.62-.67-.93l-.28-.7Zm7.09,58.3-.14,0-.08,0a.77.77,0,0,1-.49-.7l.9-2.48,0-.12.43.31,0,0C224.86,165.13,224.64,166.14,224.39,167.12Zm.79-3.44-.48-.07c.42-1.12.63-2.3.84-2.75a1.31,1.31,0,0,1,.11-.22.4.4,0,0,1,.14-.08c-.18,1-.37,2.09-.59,3.12Zm.52,11.81c-.1-.14-.2-.23-.35-.15a15.81,15.81,0,0,1,1.17-3.14,22,22,0,0,0,.89-2.24l0,.3A13.09,13.09,0,0,1,226,175C225.86,175.2,225.77,175.36,225.69,175.49Zm.53-.28v-.07C226.85,173.74,226.63,174.24,226.22,175.21Zm1.5.52a.5.5,0,0,0,0-.08C228.42,174.26,228.16,174.75,227.72,175.73Zm.56-5.21a8.9,8.9,0,0,1-1.21,4.83c-.47.68-.76.8-1,.7a27.52,27.52,0,0,0,1.36-3.68c.39-1.24.61-3.23.49-2.09l.39-1.69A17.39,17.39,0,0,0,228.29,170.52Zm.83-7.81c-.51,3.32-.58,1.37-.61,2a35.64,35.64,0,0,0-1.1,5.22l-.81,1.91c0-.23,0-.52.09-.84s.28-.9.4-1.39l-.36,1.12a10.41,10.41,0,0,1,.7-2.48,5.13,5.13,0,0,0-.41.85q1-3.66,1.66-7.45l0,.19c0,.59-.13,1.49,0,1.14l.12-.93c0,.58,0,1.29.19,1l.27-2.44c-.1-.19-.24,0-.34.49l.07-.53c0-.11-.06-.06-.1.09.22-1.32.41-2.65.57-4A42.43,42.43,0,0,1,229.12,162.71Zm.79.15c-.2,1.62-.41,2-.58,2,.32-1.39.48-2.84.67-4.31C230,161.27,230,162,229.9,162.86Zm.12-20.51c0-.58,0-1.15-.08-1.72.1.53.18,1.06.23,1.56C230.12,142.12,230.07,142.21,230,142.35Z" transform="translate(-50.76 -55.32)"/><path class="cls-1" d="M138.07,63l-1.13-.36-.61.19s.43,0,.87.07Z" transform="translate(-50.76 -55.32)"/><path class="cls-1" d="M184.5,75.14l1.69.74C184.83,75,184.51,74.92,184.5,75.14Z" transform="translate(-50.76 -55.32)"/><path class="cls-1" d="M160.34,62.24l-.34-.11-1-.2c2.57.68,5.93,1.49,7.72,2C165.66,63.56,162.45,62.83,160.34,62.24Z" transform="translate(-50.76 -55.32)"/><path class="cls-1" d="M176.71,68.25c1.57.76,1.26.58.39.1l-1.54-.72C175.88,67.81,177.23,68.49,176.71,68.25Z" transform="translate(-50.76 -55.32)"/><path class="cls-1" d="M178.8,70.56l-.52-.26s-.74-.22-1.5-.38l-1.51-.34L177,70C177.93,70.26,178.8,70.56,178.8,70.56Z" transform="translate(-50.76 -55.32)"/><path class="cls-1" d="M171.39,65.88l.26.11,1.16.44C172.45,66.25,174.15,66.9,171.39,65.88Z" transform="translate(-50.76 -55.32)"/><path class="cls-1" d="M174,66.78l.72.28C174,66.76,173.86,66.71,174,66.78Z" transform="translate(-50.76 -55.32)"/><path class="cls-1" d="M166,64.2l-1.13,0c.57,0,2.28.9,2.27.65l-.56-.32C166.29,64.33,166,64.2,166,64.2Z" transform="translate(-50.76 -55.32)"/><path class="cls-1" d="M167.36,64.1l-.59-.23a4.86,4.86,0,0,0-.61-.19l-1.08-.25,1.38.36C167,63.94,167.4,64.13,167.36,64.1Z" transform="translate(-50.76 -55.32)"/><path class="cls-1" d="M170.58,68.75c-1.16-.44.66.55,0,0Z" transform="translate(-50.76 -55.32)"/><path class="cls-1" d="M171.65,66c-1.21-.46.78.33,0,0Z" transform="translate(-50.76 -55.32)"/><path class="cls-1" d="M170.36,68.58c.12.08.15.12.22.17.24.09.56.22,1.11.46C171.45,68.78,173.06,69.46,170.36,68.58Z" transform="translate(-50.76 -55.32)"/><path class="cls-1" d="M185.12,72.77c0,.08.13.26.57.62l.26.09a13.49,13.49,0,0,1,2.23,2.3,4.93,4.93,0,0,0-.88-1.84l-.2-.05c-.88-.55-1.24-.76-1.33-.8s.36,0,.4-.09c-.33-.12-1-.37-1-.26l-.45-.27Zm1.94,1.11a2.63,2.63,0,0,1-.86-.39l-.39-.33,0,0Z" transform="translate(-50.76 -55.32)"/><path class="cls-1" d="M192.74,80.74l.16.09C192.84,80.73,192.78,80.67,192.74,80.74Z" transform="translate(-50.76 -55.32)"/><path class="cls-1" d="M195.66,82.81c-.22,0-.76-.09.15.67a9.8,9.8,0,0,1,2.24,1.68A21.41,21.41,0,0,0,195.66,82.81Z" transform="translate(-50.76 -55.32)"/><path class="cls-1" d="M193,81.11a7.93,7.93,0,0,0,1.06.45,13.93,13.93,0,0,0-1.19-.73A1.3,1.3,0,0,1,193,81.11Z" transform="translate(-50.76 -55.32)"/><path class="cls-1" d="M195.58,82.62a4,4,0,0,0-1.48-1.05c.5.37,1,.78,1.56,1.24C195.76,82.81,195.8,82.78,195.58,82.62Z" transform="translate(-50.76 -55.32)"/><path class="cls-1" d="M194.46,79.35l.94.64-1.15-.84Z" transform="translate(-50.76 -55.32)"/><path class="cls-1" d="M193,81.11l-.11-.06C193.08,81.3,193.09,81.24,193,81.11Z" transform="translate(-50.76 -55.32)"/><path class="cls-1" d="M199.59,86.53c.81.06,2.25,1.33,1.83.1-1.67-1.65-1.47-.86-2.61-1.68,2.81,2.51-1-.55.8,1.52-.59-.45-1.09-.89-1.55-1.3.45.51.87,1,1.24,1.49l0-.08h0c-.07-.15-.09-.22,0-.07l.06,0a.49.49,0,0,1,.25,0c.71.82,0,.21-.25,0,0,0-.06,0-.08,0h0s.73.59,1.41,1.23l1.39,1.26A25.56,25.56,0,0,0,199.59,86.53Z" transform="translate(-50.76 -55.32)"/><path class="cls-1" d="M205.06,92.58l0-.18-.09,0Z" transform="translate(-50.76 -55.32)"/><path class="cls-1" d="M194.46,79.35l-.11-.07C194.57,79.47,194.55,79.44,194.46,79.35Z" transform="translate(-50.76 -55.32)"/><path class="cls-1" d="M197.26,81.84c.66.55,1.35,1.19,2.13,1.9l-2.49-2.37C196.77,81.3,196.37,81,197.26,81.84Z" transform="translate(-50.76 -55.32)"/><path class="cls-1" d="M202.82,89.91l-.41-.45.24.15-.59-.53a9.55,9.55,0,0,1,1.37,2.43c1,.84,1.33.94,1.5.92l-1.25-1.49Z" transform="translate(-50.76 -55.32)"/><path class="cls-1" d="M200.8,85.13c.31.3.85,1,1,1.11A8.55,8.55,0,0,0,200.8,85.13Z" transform="translate(-50.76 -55.32)"/><path class="cls-1" d="M200.13,87.87a9.67,9.67,0,0,0-.83-1.21C199.51,87.05,199.94,87.84,200.13,87.87Z" transform="translate(-50.76 -55.32)"/><path class="cls-1" d="M215.5,108.88c.09.31.22.66.37,1C215.82,109.74,215.71,109.43,215.5,108.88Z" transform="translate(-50.76 -55.32)"/><path class="cls-1" d="M223.51,134a20.79,20.79,0,0,0,.07,2.88C223.68,135.45,224,134.28,223.51,134Z" transform="translate(-50.76 -55.32)"/><path class="cls-1" d="M212.53,98.88a10.21,10.21,0,0,0-1.12-1.62l.14.19c-.34-.17.28.61.93,1.6h0l.32.5a1.18,1.18,0,0,0-.15-.42l.6.29-.05-.1.07.08-.43-.77-.1-.19-.08-.11h0Z" transform="translate(-50.76 -55.32)"/><path class="cls-1" d="M222.41,184.65c-.4.84,0,.14,0,0Z" transform="translate(-50.76 -55.32)"/><path class="cls-1" d="M222.29,184.83l-.58,1Z" transform="translate(-50.76 -55.32)"/><path class="cls-1" d="M223.86,140.16c0-.2,0-.4.07-.61-.16-.83-.25-1.67-.35-2.69A7.25,7.25,0,0,0,223.86,140.16Z" transform="translate(-50.76 -55.32)"/><path class="cls-1" d="M215.88,110.13c-.4-.75-.1-.1,0,0Z" transform="translate(-50.76 -55.32)"/><path class="cls-1" d="M217.65,107.71l-.84-2c-.07.07-.24-.14-.43-.42C217,106.5,217.52,107.83,217.65,107.71Z" transform="translate(-50.76 -55.32)"/><path class="cls-1" d="M215.34,102.69l-1-1.82,0,0,.29.55Z" transform="translate(-50.76 -55.32)"/><path class="cls-1" d="M215.88,110.13l.51,1.07c-.21-.44-.38-.87-.52-1.28C215.91,110.09,215.91,110.16,215.88,110.13Z" transform="translate(-50.76 -55.32)"/><path class="cls-1" d="M215.37,109.14l-.3-.69C214.95,108.39,214.95,108.5,215.37,109.14Z" transform="translate(-50.76 -55.32)"/><path class="cls-1" d="M194.25,79.15c-.09-.08-.16-.14-.16-.11Z" transform="translate(-50.76 -55.32)"/><path class="cls-1" d="M212.48,104a7.21,7.21,0,0,1-.7-1.53c-.07.09-.06.37-.24.18.11.14.27.35.42.58Z" transform="translate(-50.76 -55.32)"/><path class="cls-1" d="M210.72,97.74l.14.19c-.75,0,.24,1.06,1.16,2.14C212.3,99.71,211.58,98.75,210.72,97.74Z" transform="translate(-50.76 -55.32)"/><path class="cls-1" d="M217.38,112.54c-.15-.61-.7-.11-.67-.51C215.9,111.63,219,115.5,217.38,112.54Z" transform="translate(-50.76 -55.32)"/><path class="cls-1" d="M209.81,96.5c-.3,0,.24.44.72,1A11.48,11.48,0,0,1,209.81,96.5Z" transform="translate(-50.76 -55.32)"/><path class="cls-1" d="M211.41,102.5a1.13,1.13,0,0,0,.13.17Z" transform="translate(-50.76 -55.32)"/><path class="cls-1" d="M195.28,80.83l1.28.95-.33-.47c.79.72,1.51,1.32,2.17,1.87-.78-.69-1.59-1.46-2.6-2.5l-.19-.28-.1.25c-1.33-1.23-1.24-.72-1.53-.72l.41.28C194.64,80.37,195,80.59,195.28,80.83Z" transform="translate(-50.76 -55.32)"/><path class="cls-1" d="M175.33,71.26c1.59.55,1.36.24.62-.43l-1.61-.42C174.57,70.73,175.88,71.36,175.33,71.26Z" transform="translate(-50.76 -55.32)"/><path class="cls-1" d="M175,70.18l1.76.52c-.16-.22-.07-.46-.8-.26C176.23,70.28,175.81,70.34,175,70.18Z" transform="translate(-50.76 -55.32)"/><path class="cls-1" d="M174,68.93c-3-1.08-2.74-.41.2.71C173.39,69.09,172.3,68.55,174,68.93Z" transform="translate(-50.76 -55.32)"/><path class="cls-1" d="M183.35,74.68c.49.39,1.42,1.14,1.35,1.4.18-.09-.22-.69-.21-.94,0,0-.28-.13-.57-.24Z" transform="translate(-50.76 -55.32)"/><path class="cls-1" d="M177.21,70.82l-.41-.13c.1.13.3.24.82.27Z" transform="translate(-50.76 -55.32)"/><polygon class="cls-1" points="158.38 39.71 158.17 39.67 158.89 40.5 158.38 39.71"/><path class="cls-1" d="M200.78,85.07l0,0c-.11-.12-.14-.17,0,0l.06.05a.63.63,0,0,1,.16.09c.59.3,1.87,1.77,1.19.77a16.62,16.62,0,0,0-2.33-2c2.83,2.59-.85-.7,1.12,1.24l-1.54-1.39,1.41,1.39-.06-.06c.08-.08,2.65,2.77,2.65,2.77-.49-.54-1.06-1.27-2.09-2.31Z" transform="translate(-50.76 -55.32)"/><path class="cls-1" d="M209.87,191.47l.63-.07a8.2,8.2,0,0,1,1.28-1.85C210.69,190.44,209.36,191.32,209.87,191.47Z" transform="translate(-50.76 -55.32)"/><path class="cls-1" d="M128.37,63a8.74,8.74,0,0,0,1.56-.24C129.56,62.87,128.95,62.95,128.37,63Z" transform="translate(-50.76 -55.32)"/><path class="cls-1" d="M196.78,81.23A17.24,17.24,0,0,0,195.4,80l1.51,1.38C197,81.41,197,81.41,196.78,81.23Z" transform="translate(-50.76 -55.32)"/><path class="cls-1" d="M198.4,83.17c.42.37.84.73,1.27,1.07Z" transform="translate(-50.76 -55.32)"/><path class="cls-1" d="M200.94,85.16l.36.37S201.26,85.46,200.94,85.16Z" transform="translate(-50.76 -55.32)"/><path class="cls-1" d="M210.49,96c-.16-.08.28.42.74,1Z" transform="translate(-50.76 -55.32)"/><path class="cls-1" d="M195.05,79.38a8.21,8.21,0,0,1,.86.69l1.2,1.07L196,80l0,.1c-1.38-1.2-1.15-.85-1.35-1Z" transform="translate(-50.76 -55.32)"/><path class="cls-1" d="M215.72,103.71c.19.32.64,1,.91,1.47A13,13,0,0,0,215.72,103.71Z" transform="translate(-50.76 -55.32)"/><path class="cls-1" d="M217.81,107.63l-.88-2s-.15-.19-.31-.49C217.19,106.38,217.78,107.7,217.81,107.63Z" transform="translate(-50.76 -55.32)"/><path class="cls-1" d="M216.32,105.15c.1.16.18.28.23.28A.89.89,0,0,1,216.32,105.15Z" transform="translate(-50.76 -55.32)"/></svg>